<svg xmlns="http://www.w3.org/2000/svg" version="1.1" xmlns:xlink="http://www.w3.org/1999/xlink" xmlns:svgjs="http://svgjs.dev/svgjs" width="1500" height="935" viewBox="0 0 1500 935"><g transform="matrix(1,0,0,1,-0.9090909090909918,0.3785425101214628)"><svg viewBox="0 0 396 247" data-background-color="#3a3836" preserveAspectRatio="xMidYMid meet" height="935" width="1500" xmlns="http://www.w3.org/2000/svg" xmlns:xlink="http://www.w3.org/1999/xlink"><g id="tight-bounds" transform="matrix(1,0,0,1,0.2400000000000091,-0.09999999999999432)"><svg viewBox="0 0 395.52 247.2" height="247.2" width="395.52"><g><svg></svg></g><g><svg viewBox="0 0 395.52 247.2" height="247.2" width="395.52"><mask id="b75ae723-f446-4cfe-9946-87828c54984d"><rect width="640" height="400" fill="white"></rect><g transform="matrix(1,0,0,1,84.93043269230769,37.08)"><svg viewBox="0 0 225.6591346153846 173.04" height="173.04" width="225.6591346153846"><g><svg viewBox="0 0 225.6591346153846 173.04" height="173.04" width="225.6591346153846"><g><svg viewBox="0 0 225.6591346153846 173.04" height="173.04" width="225.6591346153846"><g><svg viewBox="0 0 225.6591346153846 173.04" height="173.04" width="225.6591346153846"><g id="SvgjsG6091"><svg viewBox="0 0 225.6591346153846 173.04" height="173.04" width="225.6591346153846" id="SvgjsSvg6090"><g><svg viewBox="0 0 225.6591346153846 173.04" height="173.04" width="225.6591346153846"><g transform="matrix(1,0,0,1,0,0)"><svg width="225.6591346153846" viewBox="-1.75 -29.75 55.25 42.6" height="173.04" data-palette-color="#4be62e"><path d="M2.8-18.3L2.8-18.3Q2.8-22.15 5.1-23.95 7.4-25.75 12.25-25.75L12.25-25.75Q14.5-25.75 16.53-25.48 18.55-25.2 20.55-24.65L20.55-24.65 19.85-21Q18.6-21.35 16.93-21.58 15.25-21.8 13.75-21.8L13.75-21.8Q12.15-21.8 10.68-21.68 9.2-21.55 8.05-21.35L8.05-21.35 8.05-15.45Q12.4-14.85 15.1-14.23 17.8-13.6 19.25-12.7 20.7-11.8 21.25-10.45 21.8-9.1 21.8-7.05L21.8-7.05Q21.8-4.25 20.78-2.53 19.75-0.8 17.45-0.03 15.15 0.75 11.3 0.75L11.3 0.75Q9.1 0.75 6.85 0.38 4.6 0 2.25-0.7L2.25-0.7 3.05-4.7Q6.9-3.2 11.25-3.2L11.25-3.2Q12.75-3.2 13.88-3.35 15-3.5 16.55-3.9L16.55-3.9 16.55-9.8Q11.95-10.45 9.2-11.05 6.45-11.65 5.08-12.53 3.7-13.4 3.25-14.78 2.8-16.15 2.8-18.3ZM40.5 0.75L40.5 0.75Q37.3 0.75 35.27 0.23 33.25-0.3 32.17-1.7 31.1-3.1 30.7-5.7 30.3-8.3 30.3-12.5L30.3-12.5Q30.3-16.65 30.7-19.2 31.1-21.75 32.17-23.13 33.25-24.5 35.27-25 37.3-25.5 40.5-25.5L40.5-25.5Q43.25-25.5 45-24.93 46.75-24.35 47.72-22.93 48.7-21.5 49.1-18.98 49.5-16.45 49.5-12.5L49.5-12.5Q49.5-8.55 49.1-5.95 48.7-3.35 47.7-1.9 46.7-0.45 44.95 0.15 43.2 0.75 40.5 0.75ZM33.55-20.4L33.55-3.35 41.95-3.35Q43.3-3.35 43.77-3.6 44.25-3.85 44.25-4.6L44.25-4.6 44.25-21.4 35.85-21.4Q34.55-21.4 34.05-21.18 33.55-20.95 33.55-20.4L33.55-20.4ZM33.55 8.25L28.55 8.85 28.55-25 30.85-25 33.55-20 33.55 8.25Z" opacity="1" transform="matrix(1,0,0,1,0,0)" fill="black" class="wordmark-text-0" id="SvgjsPath6089" stroke-width="7" stroke="black" stroke-linejoin="round"></path></svg></g></svg></g></svg></g></svg></g><g></g></svg></g></svg></g></svg></g></mask><g transform="matrix(1,0,0,1,84.93043269230769,37.08)"><svg viewBox="0 0 225.6591346153846 173.04" height="173.04" width="225.6591346153846"><g><svg viewBox="0 0 225.6591346153846 173.04" height="173.04" width="225.6591346153846"><g><svg viewBox="0 0 225.6591346153846 173.04" height="173.04" width="225.6591346153846"><g><svg viewBox="0 0 225.6591346153846 173.04" height="173.04" width="225.6591346153846"><g id="textblocktransform"><svg viewBox="0 0 225.6591346153846 173.04" height="173.04" width="225.6591346153846" id="textblock"><g><svg viewBox="0 0 225.6591346153846 173.04" height="173.04" width="225.6591346153846"><g transform="matrix(1,0,0,1,0,0)"><svg width="225.6591346153846" viewBox="-1.75 -29.75 55.25 42.6" height="173.04" data-palette-color="#4be62e"><path d="M2.8-18.3L2.8-18.3Q2.8-22.15 5.1-23.95 7.4-25.75 12.25-25.75L12.25-25.75Q14.5-25.75 16.53-25.48 18.55-25.2 20.55-24.65L20.55-24.65 19.85-21Q18.6-21.35 16.93-21.58 15.25-21.8 13.75-21.8L13.75-21.8Q12.15-21.8 10.68-21.68 9.2-21.55 8.05-21.35L8.05-21.35 8.05-15.45Q12.4-14.85 15.1-14.23 17.8-13.6 19.25-12.7 20.7-11.8 21.25-10.45 21.8-9.1 21.8-7.05L21.8-7.05Q21.8-4.25 20.78-2.53 19.75-0.8 17.45-0.03 15.15 0.75 11.3 0.75L11.3 0.75Q9.1 0.75 6.85 0.38 4.6 0 2.25-0.7L2.25-0.7 3.05-4.7Q6.9-3.2 11.25-3.2L11.25-3.2Q12.75-3.2 13.88-3.35 15-3.5 16.55-3.9L16.55-3.9 16.55-9.8Q11.95-10.45 9.2-11.05 6.45-11.65 5.08-12.53 3.7-13.4 3.25-14.78 2.8-16.15 2.8-18.3ZM40.5 0.75L40.5 0.75Q37.3 0.75 35.27 0.23 33.25-0.3 32.17-1.7 31.1-3.1 30.7-5.7 30.3-8.3 30.3-12.5L30.3-12.5Q30.3-16.65 30.7-19.2 31.1-21.75 32.17-23.13 33.25-24.5 35.27-25 37.3-25.5 40.5-25.5L40.5-25.5Q43.25-25.5 45-24.93 46.75-24.35 47.72-22.93 48.7-21.5 49.1-18.98 49.5-16.45 49.5-12.5L49.5-12.5Q49.5-8.55 49.1-5.95 48.7-3.35 47.7-1.9 46.7-0.45 44.95 0.15 43.2 0.75 40.5 0.75ZM33.55-20.4L33.55-3.35 41.95-3.35Q43.3-3.35 43.77-3.6 44.25-3.85 44.25-4.6L44.25-4.6 44.25-21.4 35.85-21.4Q34.55-21.4 34.05-21.18 33.55-20.95 33.55-20.4L33.55-20.4ZM33.55 8.25L28.55 8.85 28.55-25 30.85-25 33.55-20 33.55 8.25Z" opacity="1" transform="matrix(1,0,0,1,0,0)" fill="#4be62e" class="wordmark-text-0" data-fill-palette-color="primary" id="text-0"></path></svg></g></svg></g></svg></g></svg></g><g></g></svg></g></svg></g></svg></g><g mask="url(#b75ae723-f446-4cfe-9946-87828c54984d)"><g transform="matrix(2.7244444444444444, 0, 0, 2.7244444444444444, 90.96177777777775, 1)"><svg xmlns="http://www.w3.org/2000/svg" xmlns:xlink="http://www.w3.org/1999/xlink" version="1.1" x="0" y="0" viewBox="10.1 5.2 78.4 90" enable-background="new 0 0 100 100" xml:space="preserve" height="90" width="78.4" class="icon-none" data-fill-palette-color="accent" id="none"><polygon fill-rule="evenodd" clip-rule="evenodd" fill="#e5570f" points="88.5,28.2 68.4,59.9 68.5,22.3 " data-fill-palette-color="accent"></polygon><polygon fill-rule="evenodd" clip-rule="evenodd" fill="#e5570f" points="49.8,5.2 67.2,38.5 34.7,19.6 " data-fill-palette-color="accent"></polygon><polygon fill-rule="evenodd" clip-rule="evenodd" fill="#e5570f" points="67.8,38.3 67.8,22.3 60.8,24.5 " data-fill-palette-color="accent"></polygon><polygon fill-rule="evenodd" clip-rule="evenodd" fill="#e5570f" points="88.2,73.2 50.6,71.7 83.2,52.9 " data-fill-palette-color="accent"></polygon><polygon fill-rule="evenodd" clip-rule="evenodd" fill="#e5570f" points="69.1,60.3 82.8,52.3 77.4,47.4 " data-fill-palette-color="accent"></polygon><polygon fill-rule="evenodd" clip-rule="evenodd" fill="#e5570f" points="48.7,95.2 31.5,61.9 63.9,80.9 " data-fill-palette-color="accent"></polygon><polygon fill-rule="evenodd" clip-rule="evenodd" fill="#e5570f" points="50.5,72.2 64.2,80.2 65.8,73.1 " data-fill-palette-color="accent"></polygon><polygon fill-rule="evenodd" clip-rule="evenodd" fill="#e5570f" points="10.1,72 30.5,40.4 30.1,78 " data-fill-palette-color="accent"></polygon><polygon fill-rule="evenodd" clip-rule="evenodd" fill="#e5570f" points="30.9,62.1 30.8,78 37.8,75.8 " data-fill-palette-color="accent"></polygon><polygon fill-rule="evenodd" clip-rule="evenodd" fill="#e5570f" points="11,27 48.5,28.9 15.8,47.3 " data-fill-palette-color="accent"></polygon><polygon fill-rule="evenodd" clip-rule="evenodd" fill="#e5570f" points="30,40.1 16.1,47.9 21.5,52.9 " data-fill-palette-color="accent"></polygon><polygon fill-rule="evenodd" clip-rule="evenodd" fill="#e5570f" points="48.2,28.3 34.5,20.2 32.9,27.4 " data-fill-palette-color="accent"></polygon></svg></g></g></svg></g><defs></defs></svg><rect width="395.52" height="247.2" fill="none" stroke="none" visibility="hidden"></rect></g></svg></g></svg>